<svg xmlns="http://www.w3.org/2000/svg" width="49.949" height="38.446"><defs><clipPath id="clip-path"><path id="長方形_93389" data-name="長方形 93389" fill="none" d="M0 0h49.949v38.446H0z"/></clipPath></defs><g id="グループ_69573" data-name="グループ 69573" transform="translate(-133 -1869.901)"><path id="パス_748011" data-name="パス 748011" d="M152.76 1871a105.5 105.5 0 0110.594 0 5.567 5.567 0 011.449 2.235c.33 1.213-.6 3.134 3.081 3.253s9.732.441 9.732.441 3.934 2.756 3.516 6.208.5 18.214.5 18.214-2.247 4.954-5.69 5.131-35.289 0-35.289 0-5.891-.921-6.65-3.873 0-19.472 0-19.472-.147-6.195 7.487-6.649 7.83.692 8.681-.675-.697-4.473 2.589-4.813z" transform="translate(.333 .479)" fill="#64c4f2"/><g id="グループ_69411" data-name="グループ 69411" transform="translate(133 1869.901)"><g id="グループ_69349" data-name="グループ 69349" clip-path="url(#clip-path)"><path id="パス_747915" data-name="パス 747915" d="M40.242 12.3H36.15a1.15 1.15 0 110-2.3h4.092a1.15 1.15 0 010 2.3" transform="translate(-26.95 -7.7)" fill="#333"/><path id="パス_747916" data-name="パス 747916" d="M41.9 38.446H8.05A8.059 8.059 0 010 30.4V13.8a8.059 8.059 0 018.05-8.05h7.273a1.153 1.153 0 001.128-.925l.411-2.052A3.459 3.459 0 0120.244 0H29.7a3.46 3.46 0 013.383 2.773l.41 2.052a1.153 1.153 0 001.128.925H41.9a8.059 8.059 0 018.05 8.05v16.6a8.059 8.059 0 01-8.05 8.05M8.05 8.05A5.756 5.756 0 002.3 13.8v16.6a5.756 5.756 0 005.75 5.75H41.9a5.756 5.756 0 005.75-5.75V13.8a5.756 5.756 0 00-5.75-5.75h-7.274a3.459 3.459 0 01-3.383-2.773l-.41-2.052A1.153 1.153 0 0029.7 2.3h-9.456a1.153 1.153 0 00-1.128.924l-.41 2.052a3.459 3.459 0 01-3.383 2.774z" fill="#333"/><path id="パス_748012" data-name="パス 748012" d="M147.188 1896.375s3.523 1.7 4.886 1.669 8.947-1.192 10.224-5.592.65-7.594-.718-9.584-2.085-4.675-7.6-4.731-8.48 2.294-8.9 3.357-3.413 4.527-2.222 8.437a14.743 14.743 0 004.33 6.444z" transform="translate(-128.193 -1865.769)" fill="#fff"/></g></g><path id="パス_748013" data-name="パス 748013" d="M71.034 69.741A11.216 11.216 0 1182.25 58.525a11.229 11.229 0 01-11.216 11.216m0-20.133a8.916 8.916 0 108.917 8.917 8.927 8.927 0 00-8.917-8.917" transform="translate(86.941 1833.474)" fill="#333"/><path id="パス_748014" data-name="パス 748014" d="M80.967 75.075a1.15 1.15 0 01-1.15-1.15 6.624 6.624 0 016.617-6.617 1.15 1.15 0 110 2.3 4.321 4.321 0 00-4.317 4.317 1.15 1.15 0 01-1.15 1.15" transform="translate(71.541 1818.073)" fill="#333"/></g></svg>