<svg xmlns="http://www.w3.org/2000/svg" width="48" height="48"><path d="M24 0A24 24 0 110 24 24 24 0 0124 0" fill="#fff"/><path d="M41.25 14.935a4.509 4.509 0 00-3.183-3.183C35.26 11 24 11 24 11s-11.258 0-14.065.752a4.507 4.507 0 00-3.185 3.183C6 17.742 6 23.6 6 23.6s0 5.858.752 8.665a4.509 4.509 0 003.183 3.183C12.74 36.2 24 36.2 24 36.2s11.257 0 14.065-.752a4.509 4.509 0 003.187-3.187C42 29.454 42 23.6 42 23.6s0-5.853-.752-8.661" fill="#de0000"/><path d="M20.4 28.8l9.353-5.4L20.4 18z" fill="#fefefe"/></svg>