<svg xmlns="http://www.w3.org/2000/svg" width="48" height="48.001"><path d="M48 23.997a24 24 0 10-27.75 23.708v-16.77h-6.094v-6.938h6.094V18.71c0-6.015 3.583-9.338 9.065-9.338a36.9 36.9 0 015.372.469v5.906h-3.026c-2.981 0-3.911 1.85-3.911 3.748v4.502h6.656l-1.064 6.938H27.75v16.77A24.006 24.006 0 0048 23.997" fill="#1877f2"/><path d="M33.342 30.935l1.064-6.938H27.75v-4.5c0-1.9.93-3.748 3.911-3.748h3.026V9.844a36.9 36.9 0 00-5.372-.469c-5.482 0-9.065 3.322-9.065 9.337v5.285h-6.094v6.938h6.094v16.774a24.246 24.246 0 007.5 0V30.935z" fill="#fff"/></svg>