<svg xmlns="http://www.w3.org/2000/svg" width="48" height="48"><path d="M48 24A24 24 0 1124 0a24 24 0 0124 24" fill="#4cc764"/><path d="M40.006 22.6c0-7.169-7.187-13-16.022-13s-16.022 5.833-16.022 13c0 6.427 5.7 11.81 13.4 12.828.522.113 1.232.344 1.411.79a3.283 3.283 0 01.052 1.449l-.229 1.372c-.07.4-.322 1.584 1.388.864s9.227-5.433 12.588-9.3a11.566 11.566 0 003.434-8" fill="#fff"/><path d="M34.675 26.742a.306.306 0 00.306-.306V25.3a.307.307 0 00-.306-.306h-3.059v-1.18h3.059a.306.306 0 00.306-.306v-1.136a.307.307 0 00-.306-.306h-3.059v-1.18h3.059a.306.306 0 00.306-.306v-1.136a.307.307 0 00-.306-.306h-4.5a.306.306 0 00-.306.306v6.987a.306.306 0 00.306.306h4.5zm-16.65 0a.306.306 0 00.306-.306V25.3a.307.307 0 00-.306-.306h-3.059v-5.55a.307.307 0 00-.306-.306h-1.136a.306.306 0 00-.306.306v6.987a.306.306 0 00.306.306h4.5zm2.71-7.604H19.6a.306.306 0 00-.306.306v6.993a.306.306 0 00.306.306h1.136a.306.306 0 00.306-.306v-6.993a.306.306 0 00-.306-.306m7.734 0h-1.136a.306.306 0 00-.306.306V23.6l-3.2-4.32a.391.391 0 00-.025-.032l-.018-.019h-.006l-.017-.014-.008-.006-.016-.011-.009-.006-.017-.009H23.7l-.018-.008h-.01l-.019-.006h-1.214a.306.306 0 00-.306.306v6.985a.306.306 0 00.306.306h1.139a.306.306 0 00.306-.306v-4.152l3.2 4.326a.321.321 0 00.079.077l.019.012h.009l.015.007.015.006h.01l.021.007a.309.309 0 00.08.011h1.13a.306.306 0 00.306-.306v-6.993a.306.306 0 00-.306-.306" fill="#4cc764"/></svg>