<svg xmlns="http://www.w3.org/2000/svg" viewBox="0 0 852.76 46.37"><style>.st0{fill:#004098}</style><switch><g><g id="data"><path class="st0" d="M31.87 25.07c-1.07-.48-2.02.3-2.94 1.05-.71.59-1.45 1.19-2.21 1.19h-6.57c-.62 0-.61-.33-.58-.57.06-.41.34-1.92.56-3.01.26-1.34 1.04-2.69 2.18-2.69h8.41c1.48 0 2.29 0 2.45-.92.17-.98-2.52-2.71-2.55-2.73-1.02-.63-2.04.12-3.02.86-.74.55-1.5 1.12-2.25 1.12h-3.07c-.28 0-.48-.08-.62-.25-.24-.29-.45-1-.12-2.78.07-.42.42-.87.75-1.31.51-.67 1.14-1.51.37-2.13-.66-.53-2.12-.82-2.63-.89-.46-.06-.84.04-1.13.29-.66.58-.67 1.8-.68 3.1 0 .65-.01 1.32-.1 1.87-.1.63-.2 1.13-.23 1.32-.13.71-.36.78-.95.78H12.8c-1.49 0-2.73-.03-4.03-.09-.6-.03-1.18-.06-1.77-.11-.42-.03-.71-.06-.84-.06-.26 0-.38.16-.41.23-.16.3.07.63.3.95l.08.11c.04.05.07.12.1.18.11.23.31.63.77.63.06 0 .23-.02.43-.04.27-.03.54-.05.81-.07.6-.04 1.82-.08 4.21-.08h3.5c.32 0 .57.11.75.33.35.42.47 1.25.31 2.16-.18 1.05-.37 2.15-.43 2.49-.2 1.11-.25 1.3-1 1.3H8.22c-1.49 0-2.73-.03-4.04-.09-.67-.03-1.34-.08-2.01-.13-.26-.02-.49-.04-.59-.04-.22 0-.47.12-.51.36-.06.37.16.6.31.75a.806.806 0 01.22.34c.12.25.31.66.79.66.06 0 .23-.02.42-.04.27-.03.55-.05.82-.07.84-.05 2.3-.08 4.22-.08h6.08c.11 0 .14.08.08.18-1.2 2.34-6.5 7.51-10.14 10.31C2.42 40.56.58 41.8.2 42.09c-.32.24-.2.5-.17.55.21.38 1.23.07 1.52-.04.77-.3 2.04-.9 3.12-1.55 2.92-1.76 5.64-3.84 8.31-6.37.44-.42.94-.84 1.39-1.19.34-.25.62-.24.75-.16.1.06.13.16.11.29-.34 1.68-.98 4.65-1.49 7.03-.43 1.98-.76 3.54-.82 3.85-.04.24-.17.99.22 1.45.14.17.41.37.88.37.49 0 2.4-.42 2.76-2.47.02-.11.05-.34.09-.62.18-1.31.43-3.03.71-4.75.46-2.82 1.17-7.14 1.25-7.5.02-.13.16-.17.22-.04.11.21 1.92 4.18 3.04 6.06 2.19 3.66 5.07 5.97 6.27 6.39.61.22 1.09-.27 1.52-.7.17-.18.36-.36.53-.48.59-.4 1.23-.66 1.92-.93.2-.08.41-.16.61-.25.33-.14.37-.36.36-.48-.03-.4-.52-.53-1.34-.74-.22-.06-.43-.11-.57-.16-.55-.19-1.14-.46-1.8-.8-1.27-.67-2.42-1.41-3.42-2.2-4.19-3.3-5.9-7.37-5.96-7.55-.03-.07.04-.15.15-.15h12.01c1.48 0 2.29 0 2.45-.92.17-.88-2.17-2.61-2.95-2.96zm74.3-2.72c-2.03 0-4.22 1.25-6.69 3.81-.45.47-.86.95-1.26 1.42-.35.41-.7.83-1.09 1.24-.04.04-.11.03-.15-.03-.07-.1-.17-.31-.28-.52-.13-.28-.27-.57-.45-.79-.42-.54-1.32-1.11-2.29-1.11-.8 0-1.62.35-2.17.57-.08.03-.09 0-.05-.04.09-.1.15-.18.24-.28.14-.17.28-.32.37-.44.52-.71.84-1.17 1.31-1.92.22-.36.44-.71.66-1.07.25-.41.5-.82.76-1.23.44-.69 1.31-1.03 2.15-1.36l.22-.09c2.32-.92 3.43-1.73 3.59-2.61.04-.24.05-.85-.83-1.2-.42-.17-.87-.2-1.3-.24-.17-.01-.41-.04-.52-.05-.13-.02-.15-.12-.28-.43-.1-.25-.21-.53-.43-.74-.49-.46-1.25-.53-1.66-.53-.41 0-.74.12-.97.36-.44.44-.43 1.15-.43 1.89.01 1.06-.04 1.78-.73 2.06-.38.15-.9.25-1.57.27-.55.03-1.38-.23-2.1-.45-1.12-.34-1.92-.58-2.36-.17-.14.14-.29.4-.18.86.31 1.31 1.68 2.72 3.03 2.68.3-.01 1.43-.21 1.97-.31.08-.01.09.03.05.11-.26.49-.83 1.38-1.7 2.52-.97 1.25-2.13 2.4-3.27 3.5-.37.36-.74.72-1.1 1.09-1.3 1.31-2.04 2.19-2.2 3.08-.09.49-.01.89.24 1.19.27.32.7.48 1.32.48 1.44 0 2.3-1.24 3.14-2.44.48-.69.98-1.4 1.57-1.88 1.32-1.06 2.69-1.62 3.2-1.09.19.2.4.67.34 1.78-.09 1.63-1.85 2.96-3.26 4.03-2.07 1.57-3.19 2.72-3.53 4.67-.23 1.28.04 2.42.76 3.28 1.06 1.26 3.07 1.93 5.82 1.93 6.49 0 7.21-2.27 7.29-2.72.07-.4-.02-.76-.27-1.05-.4-.48-1.13-.65-1.68-.65-.09 0-.26.01-.73.1-.37.07-.74.14-1.1.21-1.47.29-2.98.59-4.42.55-1.99-.05-2.79-.52-3.11-.91-.24-.29-.31-.65-.23-1.11.24-1.38 2.33-3.09 3.48-3.74.06-.04.12-.02.11.03-.24 1.03-.38 1.63-.41 1.83-.11.6-.14 1.42.28 1.92.15.18.44.4.92.4 1.11 0 1.85-1 2.2-2.97.02-.12.06-.42.11-.76.26-1.85 2.12-3.2 3.77-3.84.47-.18.94-.36 1.42-.54 1.59-.6 3.22-1.22 4.79-2.01 1.84-.93 2.78-1.83 2.96-2.84.16-.89-.1-1.85-.7-2.56-.65-.74-1.55-1.14-2.57-1.14zm-1.26 2.18c.22 0 .5.05.62.2.07.09.09.23.06.42-.31 1.76-5.41 4.13-7.18 4.86-.08.03-.1-.01-.06-.07.92-1.46 4.19-5.41 6.56-5.41zm-8.07-6.41c.11-.27.28-.53.47-.59.13-.05.56-.02.78.08.03.01.03.07 0 .09-.32.17-.82.38-1.18.49-.05.01-.09-.03-.07-.07zm52.28 2.05c-1.85 0-4.48.57-7.81 1.69-1.48.5-2.96 1.06-4.4 1.6-.46.18-.93.35-1.39.53-2.24.84-2.59.92-3.19.92-.28 0-.79-.14-1.2-.24-.45-.12-.73-.19-.93-.19-.54 0-.94.35-1.04.91-.1.56.18 1.3.74 1.97.85 1.01 2.08 1.61 3.3 1.61.1 0 .19 0 .28-.01h.09c1.42-.06 3.13-1.11 4.79-2.14.73-.45 1.49-.92 2.19-1.28 3.89-1.98 6.87-2.98 8.88-2.98 1.37 0 2.73.61 3.55 1.58.84 1 1.14 2.38.85 3.99-.32 1.84-1.19 6.73-9.68 10.03-.84.33-2.13.75-3.07 1.05-.56.18-.56.53-.54.67.06.33.41.5.64.5h.01c6.4-.19 12.16-3.05 14.67-7.27 1.34-2.25 1.78-4.86 1.22-7.14-.88-3.51-4-5.8-7.96-5.8zm41.77 2.9c-2.51 0-4.32 2.3-5.54 7.02-.23.9-.41 1.81-.59 2.69-.18.92-.37 1.87-.62 2.79-1.02 3.87-2.31 5.16-7.95 5.16-3.58 0-4.75-.69-5.09-1.27-.26-.43.1-.94.71-1.73.53-.69 1.14-1.46 1.1-2.35-.03-.73.58-1.44 1.23-2.18.28-.33.58-.66.82-1.01.66-.95 1.1-1.99 1.3-3.11.1-.58.13-1.02.07-1.41-.07-.51-.25-.97-.43-1.42-.17-.42-.32-.81-.37-1.2-.02-.19.02-.98.24-1.53.07-.18.21-.4.3-.51.34-.41.91-.66 1.5-.84l.19-.06c.83-.26 1.7-.53 2.49-1.03.74-.47 1.16-1.01 1.27-1.66.05-.3.09-.73-.16-1.09-.27-.38-.75-.5-1.23-.59-.2-.03-.4-.04-.6-.05-.47-.02-.78-.05-.87-.23-.1-.22-.14-.49-.18-.79-.07-.52-.16-1.12-.64-1.5-.14-.11-.3-.22-.47-.31-.91-.5-1.93-.96-2.62-.63-.21.1-.48.33-.57.81-.05.28.13.66.44 1.24.08.14.14.27.17.33.31.96.19 1.93.13 2.3-.17.95-.21.99-1.26 1.01-.67.01-1.43-.26-2.18-.53-1.03-.36-1.92-.68-2.56-.3-.32.19-.52.52-.61.98-.15.83.14 1.77.76 2.51.53.64 1.21 1 1.85 1 .25 0 .75-.1 1.55-.26.29-.06.6-.13.82-.18.17-.04.27.04.23.2-.06.27-.18.78-.31 1.19-.1.31-.47.5-.76.57-.54.13-.97.28-1.35.47-1.87.94-3.09 2.57-3.45 4.59-.17.96-.16 2.04.02 3.13.12.71.36 1.4.6 2.06.44 1.23.85 2.4.45 3.65-.07.21-.12.38-.13.47-.1.56-.14 1.64.69 2.63 1.1 1.31 3.31 1.97 6.58 1.97 2.61 0 8.37-.39 9.94-3.37.48-.91.4-2.32.44-3.7.05-1.55.07-2.78.26-4.17.05-.37.1-.71.15-1 .56-3.15 1.44-6.76 3.39-6.76.25 0 .48.11.67.33.41.46.63 1.3.53 2.16-.05.44-.36.65-1.02.8-.66.16-1.39.6-1.54 1.42-.14.82.1 1.51.69 1.97.9.69 2.53.7 3.96.03.26-.12 1.14-.63 1.36-1.9.29-1.64-.47-4.22-1.66-5.64-.64-.77-1.38-1.17-2.14-1.17zm-18.19 5.26c-.17 1.25-1.61 3-2.24 3.46-.16.11-.3.11-.38-.11-.07-.19-.05-.72 0-1.08.25-1.66 1.31-2.97 2.32-3.05.29-.03.37.23.3.78zm41.03-5.62c3.79-3.57 4.83-4.61 4.92-5.1.08-.43-.09-.9-.5-1.39-.92-1.09-3-2.2-3.83-2.2-.23 0-.46.1-.6.26-.12.13-.17.3-.15.47.03.23.13.4.22.54.02.03.04.07.06.1.32.59.48 1.01.38 1.57-.19 1.1-1.53 2.71-3.93 5.32-.42.46-.85.91-1.28 1.36-1.02 1.08-2.07 2.19-3.03 3.36-1.2 1.46-1.52 2.19-1.64 2.89-.02.11-.03.21-.04.31-.15 1.8.99 3.14 2 4.33l.5.59c1 1.24 1.73 2.44 2.16 3.57.22.57.3 1.43.38 2.2.03.26.05.51.08.74.14 1.15.36 2.89 2.01 3.23.13.03.28.04.45.04.93 0 2.04-.64 2.29-2.03.19-1.06-.3-2.53-1.52-4.63-1.08-1.86-3.14-4.33-4.37-5.81-.48-.58-.86-1.03-1.01-1.24-.47-.66-.51-1.19-.15-1.77.73-1.19 3.85-4.12 6.6-6.71zm5.67-1.85c-.33 0-.6.16-.73.42-.14.29-.09.64.13.94.03.03.19.21.39.42.24.25.53.56.64.69.32.38.51.87.72 1.39.2.51.42 1.04.76 1.5.28.37.61.55 1.03.55.97 0 1.69-1.13 1.8-1.71.14-.77-.11-1.56-.71-2.27-.93-1.1-2.66-1.93-4.03-1.93zm6.07-2.06c-.07-.02-1.77-.54-2.28-.16-.26.19-.32.42-.32.57-.01.46.42.81.8 1.12.07.06.15.12.21.18.23.2.45.42.65.65.29.32.48.74.69 1.18.25.53.5 1.08.95 1.51.29.28.63.42 1.03.42.75 0 1.39-.63 1.55-1.53.28-1.66-1.03-3.25-3.28-3.94zm47.29 14.33c-1.57-.62-3.38-.31-5.13-.02-.78.13-1.59.27-2.36.32-.92.06-1.79.11-2.33.13-.31.02-.42-.08-.48-.16-.29-.37-.18-1.36.3-2.95l.25-.83c.11-.37.31-.78.51-1.17.44-.88.9-1.79.53-2.66-.07-.16-.21-.47-.63-.86-.27-.26-.38-.39-.33-.52.05-.13.32-.12.56-.13.13-.01.36-.02.48-.03l2.04-.25c.47-.06 1.03-.07 1.63-.08 1.51-.03 2.94-.06 3.48-.8.15-.21.29-.56.13-1.09-.32-1.06-2.07-1.66-3.17-1.81-1.23-.16-2.46.31-3.65.76-.7.27-1.42.54-2.12.68-2.97.57-5.87.82-6.7.82-.77 0-2.11-.14-2.76-.29-.07-.02-.14-.04-.21-.07-.09-.03-.19-.07-.29-.09-.21-.05-.44 0-.6.14-.14.12-.22.29-.21.47.01.13.03.29.08.48.17.63.5 1.19.94 1.62.33.33 1.4 1.26 1.96 1.26.09 0 .13-.01 1.13-.26 1.11-.28 3.43-.87 3.93-.87.24 0 .3.07.33.1.39.46.05 2.71-.33 4.88-.06.34-.12.69-.19 1.03-.39 2.03-2.61 3.22-4.5 3.46-2.23.29-4.12.47-5.18.52-3.18.13-4.59.47-4.89 1.17-.07.17-.14.51.21.9.67.75 1.59 1.31 2.09 1.58.41.22.84.31 1.28.31.9 0 1.86-.35 2.8-.7.64-.23 1.3-.48 1.91-.59 4.07-.78 9.16-1.25 13.6-1.25.62 0 1.18.01 1.68.04.74.04 1.43.26 2.16.5 1.09.35 2.22.71 3.5.43.99-.22 1.28-.69 1.34-1.04.22-1.23-1.67-2.63-2.79-3.08zm30.44-4.38c-.28 0-.51.13-.62.34-.27.52.51 1.72 1.42 3.15.35.55.9 1.52 1.27 2.6.42 1.2.91 2.35 2.24 2.18 1.28-.17 1.99-1.23 2.11-1.92.16-.92-.38-2.24-1.46-3.53-1.16-1.36-3.06-2.82-4.96-2.82zm.04-6.72c-.27-.37-.66-.71-1.08-.95-1.08-.61-2.56.06-3.99.72-.71.33-1.38.63-1.94.76-2.18.49-4.68.86-5.81.86h-.25c-.43-.01-.96-.19-1.47-.37-.78-.26-1.51-.52-2.04-.2-.26.16-.43.42-.5.79-.2 1.13.39 2.13 1.74 2.95.35.21 1.01.57 1.58.57.25 0 1.22-.29 4.23-1.22.89-.28 1.73-.53 2.33-.71.08-.02.15 0 .08.14-.49.91-1.89 2.68-3.43 4.28a46.37 46.37 0 01-3.93 3.61c-1.85 1.52-3.86 2.92-5.79 4.27l-.29.2c-.3.21-.59.41-.86.6-.46.33-.38.62-.29.76.46.74 3.97-.83 4-.85 3.55-1.92 6.19-4.12 9.03-6.58.11-.09.21-.2.32-.3.25-.25.59-.6.83-.49.18.08.24.46.23.85-.01.97-.24 2.33-.31 2.73-.14.78-.28 1.41-.47 2.09-.19.68-.46 1.38-.72 2.07-.66 1.73-1.34 3.52-.86 5.17.37 1.28 1 1.99 1.77 1.99 1.11 0 1.49-1.2 1.68-2.1.26-1.24.41-2.49.56-3.69.09-.77.19-1.56.31-2.33.17-1.08.34-2.09.42-2.56.06-.34.11-.61.15-.84.09-.49.33-1.02.56-1.52.37-.83.76-1.69.61-2.57-.06-.37-.27-.71-.62-1.01-.21-.18-.54-.32-1.03-.53-.09-.04-.1-.08-.05-.15.37-.48.81-.94 1.23-1.39.18-.19.36-.39.54-.58.27-.3.5-.55.69-.76.28-.3.73-.66 1.16-1.01 1.13-.93 2.29-1.86 1.68-2.7zm-5.36-4.82c.37.66.58 1.39 1.15 1.95.3.29 1.08.64 1.95.17.59-.32 1.24-1.11 1.3-1.83.11-1.36-1.08-3.25-4.43-4.32-.99-.31-1.64-.05-1.84.28-.28.46.05 1.18.55 1.79.51.62.92 1.23 1.32 1.96zm48.32 5.94c-.2 0-.24 0-2.39 1.87l-.76.67c-1.34 1.17-2.72 2.39-4.14 3.5-3.03 2.37-5.34 3.76-6.35 4.06-.14.04-.38.09-.44.04-.09-.07-.09-.29-.01-.75.1-.6.37-1.92.65-3.21.18-.85.59-1.74.99-2.61.74-1.62 1.5-3.29.86-4.8-.28-.68-1-1.24-2.14-1.66-.53-.2-.91-.07-1.13.07-.85.55-.95 2.23-1.05 3.86-.02.39-.05.77-.08 1.1-.1.99-.27 2.15-.5 3.46-.06.35-.18.99-.31 1.68-.11.54-.28 1.12-.45 1.68-.46 1.53-.94 3.1-.19 4.39.38.65.9 1.21 1.41 1.52.23.14.49.2.77.2.48 0 1.01-.2 1.46-.59.17-.15.34-.31.51-.46.16-.16.33-.31.5-.46.24-.2.59-.48 1.13-.89.28-.21.55-.42.83-.63.65-.49 1.29-.98 1.93-1.49 6.52-5.23 9.36-9.47 9.45-9.94a.523.523 0 00-.12-.43.683.683 0 00-.43-.18zm-21.02-1.68c-.43-.23-.78-.15-1-.04-.75.38-1.09 1.64-1.37 3.41-.02.11-.04.22-.06.34-.14.78-.83 3.66-3.94 7.84-.34.45-.89 1.19-1.48 1.89-2.18 2.57-2.66 3.14-2.31 3.6.11.15.26.19.41.19.21 0 .43-.1.54-.15 1.4-.65 3.62-2.17 5.65-4.5 1.41-1.62 2.45-3.45 3.49-5.35.02-.04 2.15-3.82 2.25-4.29.23-1.06-.57-2.08-2.18-2.94zm51.49-4.68c-.43-.02-.75.1-.87.36-.16.35.02.72.18.96.23.34.56.72.9 1.21.72 1.05 1.34 2.34 1.87 2.9.31.33.6.49 1 .49.97 0 1.71-1.16 1.81-1.76.13-.73-.13-1.53-.73-2.25-.99-1.18-2.46-1.82-4.16-1.91zm-.39 10.09c-.42 0-.8.02-1.17.07-1.24.16-2.45.63-3.63 1.08-.74.28-1.5.58-2.25.79-1.15.32-1.75.43-1.92.43-.28 0-.63-.26-.65-.61-.05-.82-.02-2.87.02-3.3.09-1.05 1.48-1.46 2.69-1.71.49-.1.97-.19 1.46-.28.83-.15 1.69-.31 2.53-.51 1.17-.27 1.79-.55 1.93-1.34.12-.68-.47-1.4-1.41-1.71-1.31-.44-2.66.17-3.97.76-.9.41-1.49.71-2.62.88-.52.08-.66-.16-.72-.56-.13-.9.02-2.03.13-2.98.18-1.49-.22-2.55-1.12-2.98-.77-.37-2.52-.66-3.08-.59-.51.06-.83.31-.99.65-.3.67.22 1.53.82 2.52.47.77 1 1.64 1.07 2.36.03.32.09.89.1 1.23.02.73-.4 1.03-1.29 1.36-.94.35-2.15.53-3.69.68l-.25.02c-1.15.11-2.03.15-2.44.15-.42 0-1.13 0-1.23.6-.05.26.06.53.3.82.56.67 1.95 1.45 2.83 1.64.13.03.41.04.6-.01.13-.04.35-.1.71-.21.88-.26 2.35-.7 3.4-.95.37-.09.64-.05.86.11.73.57.76 2.59.77 3.45.02 1.19-1.69 1.62-3.6 1.98-2.68.51-4.56.78-6.8.78-.15 0-.65-.04-1.09-.07-.5-.04-.96-.08-1.15-.08-.48 0-.84.28-.91.71-.27 1.51 3.24 2.99 3.78 3.17 1.3.41 2.09-.22 3.4-.85.7-.34 2-.7 2.69-.87.89-.22 1.77-.45 2.45-.58.4-.08.61-.04.82.13.72.56.77 2.46.78 3.09.02.56.01 1.12.01 1.69 0 1.54 0 3.13.32 4.63.3 1.43.93 2.15 1.86 2.15.86 0 1.33-.95 1.48-1.76.18-1-.17-3.75-.51-6.41-.17-1.34-.33-2.6-.38-3.35-.04-.62.02-.88.67-1.22.88-.46 4.05-.94 4.23-.97.77-.13 1.68-.09 2.56-.05 1.93.09 4.12.19 4.49-1.86.07-.4-.06-.84-.37-1.2-.25-.34-.97-.92-2.52-.92zm4.43-13.37c-.76 0-.99.25-1.03.59-.05.51.37.93 1.07 1.69.2.21.84.97 1.11 1.41.7 1.14 1.48 1.73 2.18 1.71.9-.02 1.47-.87 1.57-1.46.14-.77-.08-1.51-.61-2.15-1.03-1.23-3.18-1.79-4.29-1.79zm37.43 14.24c-1.22-.9-3.42-.66-5.36-.44-.58.06-1.14.13-1.6.15-6.25.29-12.33.5-15 .58-.6.02-3.24-.06-3.65-.09-1.45-.13-2.94-.27-3.5.41-.15.18-.3.5-.15.99.4 1.36 1.59 2.8 3 2.8 1.09 0 2.19-.24 3.26-.48.87-.19 1.77-.39 2.63-.44 3.3-.21 8.46-.48 12.01-.44 1.73.02 4.92.08 5.37.08 1.3 0 3.46 0 3.73-1.5.06-.4-.08-1.13-.74-1.62zM73.1 25.52c-1.02-.69-2.03.09-3.01.85-.74.57-1.51 1.16-2.27 1.16h-3.53c-.06 0-.07-.03-.04-.07.42-.56 5.11-4.23 5.45-4.47.49-.35 1-.78 1.01-1.3.01-.31-.14-.59-.46-.85-.68-.56-1.99-1.38-2.64-1.38-.66 0-.78.64-.85 1.07-.15.86-.71 1.99-1.61 3.26-.77 1.08-1.37 1.88-1.83 2.44l-.08.1c-.23.28-.7.86-1.07 1.06-.24.13-.75.16-1.03.16-.16 0-.28-.05-.35-.13-.09-.11-.12-.3-.07-.54.05-.27.17-1.03.32-1.97.3-1.86.72-4.39.85-5.1.15-.85.43-1 .92-1h9.08c1.48 0 2.29 0 2.45-.92.17-.98-2.52-2.71-2.55-2.73-1.03-.63-2.04.12-3.02.86-.74.55-1.5 1.12-2.26 1.12h-3.54c-.38 0-.52-.1-.55-.26-.07-.36.14-1.27.34-1.93.31-.98.68-2.21-.5-2.61-.47-.16-1.02-.32-1.45-.42-.34-.08-.63-.03-.86.15-.5.41-.49 1.31-.47 2.36.01.62.03 1.25-.08 1.72-.2.9-.4.99-.82.99H54.7c-1.51 0-2.76-.03-4.03-.09-.67-.03-1.34-.08-2.01-.13-.26-.02-.49-.04-.59-.04-.22 0-.47.13-.51.36-.06.37.17.61.32.75a.806.806 0 01.22.34c.12.25.31.66.79.66.06 0 .25-.02.43-.04.33-.04.66-.05 1.02-.07.7-.03 1.89-.08 4.01-.08h4.06c.12 0 .28.02.35.09.14.17.05.72-.04 1.2l-1.16 6.56c-.11.62-.19.89-.86.89h-7.31c-1.38 0-2.61-.05-4.07-.11-.79-.03-1.43-.07-2.02-.12-.26-.02-.49-.04-.59-.04-.26 0-.38.16-.41.23-.16.3.07.63.3.95l.08.11c.04.05.07.12.1.18.11.23.31.63.77.63.31 0 .62-.03.92-.07.21-.02.43-.05.64-.06.87-.04 2.08-.06 3.94-.06h4.84c.41-.01.42.19.37.29-.69 1.53-5.08 6.15-11.45 10.41-.82.55-2.74 1.8-3.62 2.31-.27.16-.76.45-.59.85.13.33.55.37 1.43.14 1.16-.3 2.76-1.1 3.81-1.7 3.56-2.02 6.76-4.25 9.02-6.28.47-.42 1.19-1.13 1.88-1.82.7-.69 1.46-1.4 1.73-1.62.11-.09.19-.12.22-.09s.02.08 0 .2c-.01.03-.08.43-.2 1.07-.3 1.56-.86 4.53-1.26 6.55-.3 1.52-.64 3.04-.97 4.45-.06.27-.11.48-.13.6-.06.32-.17.99.2 1.44.21.25.52.38.93.38 2.18 0 2.53-1.99 2.68-2.84.17-.94.58-3.54 1.02-6.3.46-2.85.92-5.8 1.12-6.91.02-.1.03-.16.05-.23.02-.08.09-.08.11-.03.05.11.09.23.15.42.17.54.33 1.02.5 1.45 2.85 7.27 8.62 10.92 9.16 10.92.49 0 .83-.35 1.13-.67.13-.13.25-.25.37-.34.52-.39 1.13-.67 1.66-.89.38-.16.78-.32 1.05-.46.35-.17.39-.42.38-.54-.04-.47-.72-.69-1.84-1.01l-.27-.08c-.13-.04-.26-.08-.38-.12-1.2-.39-2.22-.84-3.11-1.38-3.48-2.12-6.3-6.04-7.03-7.67-.11-.25-.11-.38-.07-.44.03-.04.11-.06.23-.06h11.08c1.33 0 2.29 0 2.43-.81.1-.71-2.18-2.57-2.58-2.85z"/><path class="st0" d="M51.46 25.04c.43 1.58.69 2.04 1.62 2.04 1 0 1.71-1.03 1.89-2.04.23-1.32-.47-2.2-1.1-2.82-1.06-1.04-2.51-2.01-3.52-2.56-.15-.08-.59-.32-.8.04-.17.28.02.61.19.91.36.63.64 1.17.84 1.64.3.68.6 1.75.88 2.79zM490.4 14.7h-14.59l-.01 14.26h-14.62V14.7h-14.65V0h43.87z"/><path fill="#e6002d" d="M475.86 29.06h14.58v14.58h-14.58z"/><path d="M552.31 14.61h4.88v29.02h-4.88zm10.5 13.06l11.7-13.07h-5.79l-11.43 12.92 12.23 16.11 5.3-.02zm31.37-13.08l-6.74 13.81-6.75-13.81h-4.84L584.84 33l.01 10.67 5.25-.02V33l8.77-18.41zm-74.84 0h-18.45v3.96h7.09v25.16h4.88V18.55h6.48zm.17 14.52c0-8.4 6.71-15.2 14.99-15.2 8.28 0 14.99 6.81 14.99 15.2 0 8.4-6.71 15.2-14.99 15.2-8.27 0-14.99-6.81-14.99-15.2zm14.99 10.71c5.79 0 10.49-4.8 10.49-10.71 0-5.9-4.71-10.71-10.49-10.71-5.79 0-10.49 4.81-10.49 10.71 0 5.9 4.7 10.71 10.49 10.71zm62.12-10.71c0-8.4 6.71-15.2 14.99-15.2 8.28 0 14.99 6.81 14.99 15.2 0 8.4-6.71 15.2-14.99 15.2-8.28 0-14.99-6.81-14.99-15.2zm14.98 10.71c5.79 0 10.49-4.8 10.49-10.71 0-5.9-4.71-10.71-10.49-10.71-5.79 0-10.49 4.81-10.49 10.71 0 5.9 4.71 10.71 10.49 10.71zm68.56-26.19l-11.87 30.06 4.73-.01 7.24-18.12 7.24 18.12 4.85-.02zm21.45 12.06c-1.98-.76-3.15-1.5-3.06-3.68.08-1.83 1.3-3.35 3.13-3.35 1.89 0 3.13 1.06 4.12 2.75l3.63-2.18a8.008 8.008 0 00-7.52-5.23c-4.43 0-8.01 3.59-8.02 8.02-.01 2.72 1.23 4.98 3.12 6.36 1.78 1.24 4.16 2.36 5.25 2.87 2.42 1.13 3.54 2.11 3.54 4.47 0 2.6-1.64 4.84-4.35 4.69-4.47-.25-4.44-4.8-4.42-4.97l-4.12 1.98c.88 4.19 4.19 7.47 9.23 7.47 4.92 0 8.62-4.17 8.63-9.33 0-4.83-3.8-7.82-9.16-9.87zm-32.71 2.4h-13.28v3.66h8.6c-1.04 4.79-5.24 8.39-10.24 8.39-5.79 0-10.49-4.8-10.49-10.71 0-5.9 4.7-10.71 10.49-10.71 3.03 0 5.76 1.32 7.68 3.42l3.46-2.88c-2.74-3.09-6.71-5.03-11.14-5.03-8.28 0-14.99 6.81-14.99 15.2 0 8.4 6.71 15.2 14.99 15.2 8.28 0 14.99-6.81 14.99-15.2-.01-.45-.03-.9-.07-1.34zm97.11 3.4c1.51-.26 3-.63 3.78-1.11 2.64-1.67 3.65-3.86 3.61-7.82 0-3.21-1.41-5.5-4.32-7.01l-.02-.01c-2.16-.96-3.72-.94-6.09-.92-.69.01-6.28-.01-6.79-.01v29.18H761l.01-11.39 8.91 11.39h5.28l-9.19-12.3zm-4.52-3.9h-.46V18.8h.25c2.28-.01 5.42-.04 6.87 1.72 1.03 1.24.79 3.86-.11 5.23-1.05 1.87-3.48 1.86-6.55 1.84zm14.06 1.52c0-8.4 6.71-15.2 14.99-15.2 8.28 0 14.99 6.81 14.99 15.2 0 8.4-6.71 15.2-14.99 15.2-8.28 0-14.99-6.81-14.99-15.2zm14.99 10.71c5.79 0 10.49-4.8 10.49-10.71 0-5.9-4.71-10.71-10.49-10.71-5.79 0-10.49 4.81-10.49 10.71-.01 5.9 4.7 10.71 10.49 10.71zm-37.81-11.73h-13.28v3.66h8.6c-1.04 4.79-5.24 8.39-10.24 8.39-5.79 0-10.49-4.8-10.49-10.71 0-5.9 4.7-10.71 10.49-10.71 3.03 0 5.76 1.32 7.68 3.42l3.46-2.88c-2.74-3.09-6.71-5.03-11.14-5.03-8.28 0-14.99 6.81-14.99 15.2 0 8.4 6.71 15.2 14.99 15.2 8.28 0 14.99-6.81 14.99-15.2 0-.45-.03-.9-.07-1.34zm97.45-11c-.8-.84-2.67-2.27-6.21-2.5H835v29.2h5.03l.02-11.29 3.34-.03h.02c2.9 0 5.6-1.24 7.21-3.32 2.7-2.87 3.17-8.4-.44-12.06zm-3.06 9.56c-1.17 1.14-2.37 1.43-3.82 1.52H840v-8.98h3.19l.3.03c1.05.1 2.64.26 3.64 1.55 1.88 2.51.58 5.16-.01 5.88zm-21.29-12.06V32.2c0 2.7-.19 3.84-.82 4.87-.97 1.51-3.16 2.57-5.32 2.57-2.19 0-4.4-1.06-5.37-2.57-.63-1.02-.82-2.16-.82-4.86V14.59h-5.21v18.44c0 3.32.6 5.36 2.14 7.24 2.05 2.61 5.6 4.23 9.25 4.23 3.64 0 7.08-1.58 9.21-4.22 1.54-1.9 2.15-3.93 2.15-7.25V14.59h-5.21z"/></g></g></switch></svg>