<svg xmlns="http://www.w3.org/2000/svg" width="38" height="44"><g id="グループ_69672" data-name="グループ 69672" transform="translate(-21.981 -18.663)"><circle id="楕円形_20072" data-name="楕円形 20072" cx="16" cy="16" r="16" transform="translate(27.981 27.663)" fill="#e2f2ff"/><g id="グループ_69555" data-name="グループ 69555" transform="translate(2 -2.913)"><g id="グループ_69374" data-name="グループ 69374" transform="translate(21.978 21.575)" fill="#010101"><path id="パス_747996" data-name="パス 747996" d="M32.319 35.983v3.04h-1.4V30.7h2.426a2.36 2.36 0 012.546 2.63 2.374 2.374 0 01-2.546 2.655zm.833-1.207c.965 0 1.34-.495 1.34-1.448 0-.9-.374-1.424-1.34-1.424h-.833v2.872z" transform="translate(-30.919 -30.589)"/><path id="パス_747997" data-name="パス 747997" d="M38.977 35.347v-1.062c0-2.618 1.074-3.741 2.619-3.741s2.618 1.123 2.618 3.741v1.062c0 2.619-1.073 3.741-2.618 3.741s-2.619-1.122-2.619-3.741m1.4-1.062v1.062c0 1.8.4 2.534 1.219 2.534s1.219-.737 1.219-2.534v-1.062c0-1.8-.4-2.534-1.219-2.534s-1.219.735-1.219 2.534" transform="translate(-33.257 -30.544)"/><path id="長方形_93412" data-name="長方形 93412" transform="translate(12.333 .109)" d="M0 0h1.4v8.326H0z"/><path id="パス_747998" data-name="パス 747998" d="M57.7 30.7v8.326h-1.269l-2.438-4.936v4.936h-1.4V30.7h1.243l2.464 5.005V30.7z" transform="translate(-37.208 -30.589)"/><path id="パス_747999" data-name="パス 747999" d="M66.1 30.7v1.219h-1.87v7.107h-1.4v-7.109h-1.87V30.7z" transform="translate(-39.634 -30.589)"/></g><text id="_02" data-name="2" transform="translate(35.981 56.575)" fill="#fff" font-size="29" font-family="DIN2014-Bold, 'DIN \32 014'" font-weight="700"><tspan x="-15.66" y="0">02</tspan></text><path id="_02_-_アウトライン" data-name="02 - アウトライン" d="M-7.83-20.721a7.81 7.81 0 015 1.526A6.432 6.432 0 01-.652-13.92v7.8A6.541 6.541 0 01-2.828-.9a7.659 7.659 0 01-5 1.61 7.659 7.659 0 01-5-1.61 6.541 6.541 0 01-2.176-5.22v-7.772a6.473 6.473 0 012.181-5.3 7.793 7.793 0 014.993-1.529zm0 20.532a6.779 6.779 0 004.423-1.4 5.6 5.6 0 001.855-4.53v-7.8c0-5.134-3.933-5.9-6.278-5.9-5.462 0-6.278 3.715-6.278 5.93v7.772a5.6 5.6 0 001.855 4.531A6.779 6.779 0 00-7.83-.189zM7.743-20.721a7.071 7.071 0 014.814 1.779 6 6 0 011.958 4.471c0 2.806-1.8 4.939-3.122 6.5L7.9-3.872h6.379V.45H1.029v-3.225l6.806-8.014a5.666 5.666 0 001.749-3.682 1.9 1.9 0 00-2.044-1.986 1.941 1.941 0 00-2.045 2.019l-.03.417H1v-.45A5.984 5.984 0 013-19a7.08 7.08 0 014.743-1.721zm5.64 17.749H5.958l4.748-5.585c1.227-1.45 2.909-3.438 2.909-5.915 0-3.05-2.524-5.35-5.872-5.35A6.183 6.183 0 003.6-18.329a5.065 5.065 0 00-1.684 3.408h2.73a2.977 2.977 0 01.87-1.7 2.9 2.9 0 012.022-.741 3.057 3.057 0 012.034.722 2.788 2.788 0 01.91 2.164A6.541 6.541 0 018.519-10.2l-6.59 7.76v1.99h11.454zM-7.83-17.3a2.844 2.844 0 012.361 1.02 4.34 4.34 0 01.757 2.737v7.076a4.34 4.34 0 01-.757 2.737A2.844 2.844 0 01-7.83-2.711a2.883 2.883 0 01-2.385-1.017 4.318 4.318 0 01-.762-2.739v-7.076a4.318 4.318 0 01.762-2.739A2.883 2.883 0 01-7.83-17.3zm0 13.688a1.967 1.967 0 001.656-.678 3.5 3.5 0 00.562-2.178v-7.076a3.5 3.5 0 00-.562-2.178A1.967 1.967 0 00-7.83-16.4c-2.014 0-2.247 1.63-2.247 2.856v7.076c0 2.561 1.282 2.857 2.247 2.857z" transform="translate(35.981 56.575)" fill="#010101"/></g></g></svg>