<svg xmlns="http://www.w3.org/2000/svg" width="38" height="44"><g id="グループ_69673" data-name="グループ 69673" transform="translate(-21.981 -18.663)"><circle id="楕円形_20072" data-name="楕円形 20072" cx="16" cy="16" r="16" transform="translate(27.981 27.663)" fill="#e2f2ff"/><g id="グループ_69555" data-name="グループ 69555" transform="translate(2 -2.913)"><g id="グループ_69374" data-name="グループ 69374" transform="translate(21.978 21.575)" fill="#010101"><path id="パス_747996" data-name="パス 747996" d="M32.319 35.983v3.04h-1.4V30.7h2.426a2.36 2.36 0 012.546 2.63 2.374 2.374 0 01-2.546 2.655zm.833-1.207c.965 0 1.34-.495 1.34-1.448 0-.9-.374-1.424-1.34-1.424h-.833v2.872z" transform="translate(-30.919 -30.589)"/><path id="パス_747997" data-name="パス 747997" d="M38.977 35.347v-1.062c0-2.618 1.074-3.741 2.619-3.741s2.618 1.123 2.618 3.741v1.062c0 2.619-1.073 3.741-2.618 3.741s-2.619-1.122-2.619-3.741m1.4-1.062v1.062c0 1.8.4 2.534 1.219 2.534s1.219-.737 1.219-2.534v-1.062c0-1.8-.4-2.534-1.219-2.534s-1.219.735-1.219 2.534" transform="translate(-33.257 -30.544)"/><path id="長方形_93412" data-name="長方形 93412" transform="translate(12.333 .109)" d="M0 0h1.4v8.326H0z"/><path id="パス_747998" data-name="パス 747998" d="M57.7 30.7v8.326h-1.269l-2.438-4.936v4.936h-1.4V30.7h1.243l2.464 5.005V30.7z" transform="translate(-37.208 -30.589)"/><path id="パス_747999" data-name="パス 747999" d="M66.1 30.7v1.219h-1.87v7.107h-1.4v-7.109h-1.87V30.7z" transform="translate(-39.634 -30.589)"/></g><text id="_03" data-name="3" transform="translate(35.981 56.575)" fill="#fff" font-size="29" font-family="DIN2014-Bold, 'DIN \32 014'" font-weight="700"><tspan x="-15.66" y="0">03</tspan></text><path id="_03_-_アウトライン" data-name="03 - アウトライン" d="M-7.83-20.721a7.81 7.81 0 015 1.526A6.432 6.432 0 01-.652-13.92v7.8A6.541 6.541 0 01-2.828-.9a7.659 7.659 0 01-5 1.61 7.659 7.659 0 01-5-1.61 6.541 6.541 0 01-2.176-5.22v-7.772a6.473 6.473 0 012.181-5.3 7.793 7.793 0 014.993-1.529zm0 20.532a6.779 6.779 0 004.423-1.4 5.6 5.6 0 001.855-4.53v-7.8c0-5.134-3.933-5.9-6.278-5.9-5.462 0-6.278 3.715-6.278 5.93v7.772a5.6 5.6 0 001.855 4.531A6.779 6.779 0 00-7.83-.189zM7.6-20.721a7.207 7.207 0 014.831 1.749 5.609 5.609 0 011.941 4.211 5.188 5.188 0 01-2.3 4.36A5.492 5.492 0 0114.66-5.6a6.171 6.171 0 01-1.781 4.468A7.024 7.024 0 017.83.711 7.809 7.809 0 012.608-.995a5.958 5.958 0 01-2.014-4.35l-.021-.47H5l.06.379c.187 1.177 1.08 1.825 2.514 1.825A2.059 2.059 0 009.729-5.8c0-1.568-.883-2.363-2.624-2.363H5.176v-4.322h1.929c2.031 0 2.334-1.317 2.334-2.1a1.878 1.878 0 00-2.044-1.87A1.927 1.927 0 005.347-14.7l-.054.388H.835l.021-.47a5.962 5.962 0 012.063-4.3A7.14 7.14 0 017.6-20.721zM7.83-.189a6.149 6.149 0 004.419-1.582A5.28 5.28 0 0013.76-5.6a4.732 4.732 0 00-.788-2.716A5.011 5.011 0 0011-9.978l-.781-.384.764-.415a4.473 4.473 0 002.491-3.984c0-2.837-2.579-5.06-5.872-5.06A6.242 6.242 0 003.505-18.4a4.962 4.962 0 00-1.711 3.193h2.738a2.817 2.817 0 012.863-2.146 2.767 2.767 0 012.944 2.77 2.9 2.9 0 01-3.234 3H6.076v2.522h1.029c2.24 0 3.524 1.189 3.524 3.263a3.146 3.146 0 01-.819 2.181 3 3 0 01-2.241.906 3.139 3.139 0 01-3.32-2.2H1.532c.35 2.924 2.72 4.722 6.298 4.722zM-7.83-17.3a2.844 2.844 0 012.361 1.02 4.34 4.34 0 01.757 2.737v7.076a4.34 4.34 0 01-.757 2.737A2.844 2.844 0 01-7.83-2.711a2.883 2.883 0 01-2.385-1.017 4.318 4.318 0 01-.762-2.739v-7.076a4.318 4.318 0 01.762-2.739A2.883 2.883 0 01-7.83-17.3zm0 13.688a1.967 1.967 0 001.656-.678 3.5 3.5 0 00.562-2.178v-7.076a3.5 3.5 0 00-.562-2.178A1.967 1.967 0 00-7.83-16.4c-2.014 0-2.247 1.63-2.247 2.856v7.076c0 2.561 1.282 2.857 2.247 2.857z" transform="translate(35.981 56.575)" fill="#010101"/></g></g></svg>