<svg xmlns="http://www.w3.org/2000/svg" width="22" height="22"><g id="ico_q" transform="translate(6507.556)"><circle id="楕円形_611" data-name="楕円形 611" cx="11" cy="11" r="11" transform="translate(-6507.556)" fill="#254193"/><path id="パス_71843" data-name="パス 71843" d="M5.39-1.5c-1.54 0-2.52-1.4-2.52-3.724 0-2.226.98-3.556 2.52-3.556s2.52 1.33 2.52 3.556C7.91-2.9 6.93-1.5 5.39-1.5zm3.346 4.314a4.453 4.453 0 001.75-.308L10.108.98a3.658 3.658 0 01-1.134.168A2.654 2.654 0 016.622.042c2.058-.532 3.4-2.436 3.4-5.264 0-3.36-1.89-5.334-4.634-5.334S.756-8.6.756-5.222c0 2.954 1.47 4.914 3.682 5.334a4.525 4.525 0 004.298 2.702z" transform="translate(-6502.621 15)" fill="#fff"/></g></svg>