<svg xmlns="http://www.w3.org/2000/svg" width="375" height="528"><defs><clipPath id="clip-path"><path id="長方形_93359" data-name="長方形 93359" transform="translate(0 47)" fill="#64d5ff" d="M0 0h375v528H0z"/></clipPath><clipPath id="clip-path-2"><path fill="none" d="M0 0h878v598.828H0z"/></clipPath></defs><g id="マスクグループ_40510" data-name="マスクグループ 40510" transform="translate(0 -47)" clip-path="url(#clip-path)"><path id="長方形_90274" data-name="長方形 90274" transform="translate(0 47)" fill="#8be4ff" d="M0 0h375v540H0z"/><g id="リピートグリッド_152" data-name="リピートグリッド 152" transform="translate(-460.914 39.586)" clip-path="url(#clip-path-2)"><g transform="translate(197.914 119.914)"><path id="線_14644" data-name="線 14644" fill="none" stroke="#9be8ff" stroke-width="4" d="M263.5-118.5l-460 460"/></g><g transform="translate(220.914 119.914)"><path id="線_14644-2" data-name="線 14644" fill="none" stroke="#9be8ff" stroke-width="4" d="M263.5-118.5l-460 460"/></g><g transform="translate(243.914 119.914)"><path id="線_14644-3" data-name="線 14644" fill="none" stroke="#9be8ff" stroke-width="4" d="M263.5-118.5l-460 460"/></g><g transform="translate(266.914 119.914)"><path id="線_14644-4" data-name="線 14644" fill="none" stroke="#9be8ff" stroke-width="4" d="M263.5-118.5l-460 460"/></g><g transform="translate(289.914 119.914)"><path id="線_14644-5" data-name="線 14644" fill="none" stroke="#9be8ff" stroke-width="4" d="M263.5-118.5l-460 460"/></g><g transform="translate(312.914 119.914)"><path id="線_14644-6" data-name="線 14644" fill="none" stroke="#9be8ff" stroke-width="4" d="M263.5-118.5l-460 460"/></g><g transform="translate(335.914 119.914)"><path id="線_14644-7" data-name="線 14644" fill="none" stroke="#9be8ff" stroke-width="4" d="M263.5-118.5l-460 460"/></g><g transform="translate(358.914 119.914)"><path id="線_14644-8" data-name="線 14644" fill="none" stroke="#9be8ff" stroke-width="4" d="M263.5-118.5l-460 460"/></g><g transform="translate(381.914 119.914)"><path id="線_14644-9" data-name="線 14644" fill="none" stroke="#9be8ff" stroke-width="4" d="M263.5-118.5l-460 460"/></g><g transform="translate(404.914 119.914)"><path id="線_14644-10" data-name="線 14644" fill="none" stroke="#9be8ff" stroke-width="4" d="M263.5-118.5l-460 460"/></g><g transform="translate(427.914 119.914)"><path id="線_14644-11" data-name="線 14644" fill="none" stroke="#9be8ff" stroke-width="4" d="M263.5-118.5l-460 460"/></g><g transform="translate(450.914 119.914)"><path id="線_14644-12" data-name="線 14644" fill="none" stroke="#9be8ff" stroke-width="4" d="M263.5-118.5l-460 460"/></g><g transform="translate(473.914 119.914)"><path id="線_14644-13" data-name="線 14644" fill="none" stroke="#9be8ff" stroke-width="4" d="M263.5-118.5l-460 460"/></g><g transform="translate(496.914 119.914)"><path id="線_14644-14" data-name="線 14644" fill="none" stroke="#9be8ff" stroke-width="4" d="M263.5-118.5l-460 460"/></g><g transform="translate(519.914 119.914)"><path id="線_14644-15" data-name="線 14644" fill="none" stroke="#9be8ff" stroke-width="4" d="M263.5-118.5l-460 460"/></g><g transform="translate(542.914 119.914)"><path id="線_14644-16" data-name="線 14644" fill="none" stroke="#9be8ff" stroke-width="4" d="M263.5-118.5l-460 460"/></g><g transform="translate(565.914 119.914)"><path id="線_14644-17" data-name="線 14644" fill="none" stroke="#9be8ff" stroke-width="4" d="M263.5-118.5l-460 460"/></g><g transform="translate(588.914 119.914)"><path id="線_14644-18" data-name="線 14644" fill="none" stroke="#9be8ff" stroke-width="4" d="M263.5-118.5l-460 460"/></g><g transform="translate(611.914 119.914)"><path id="線_14644-19" data-name="線 14644" fill="none" stroke="#9be8ff" stroke-width="4" d="M263.5-118.5l-460 460"/></g><g transform="translate(634.914 119.914)"><path id="線_14644-20" data-name="線 14644" fill="none" stroke="#9be8ff" stroke-width="4" d="M263.5-118.5l-460 460"/></g><g transform="translate(657.914 119.914)"><path id="線_14644-21" data-name="線 14644" fill="none" stroke="#9be8ff" stroke-width="4" d="M263.5-118.5l-460 460"/></g><g transform="translate(680.914 119.914)"><path id="線_14644-22" data-name="線 14644" fill="none" stroke="#9be8ff" stroke-width="4" d="M263.5-118.5l-460 460"/></g><g transform="translate(703.914 119.914)"><path id="線_14644-23" data-name="線 14644" fill="none" stroke="#9be8ff" stroke-width="4" d="M263.5-118.5l-460 460"/></g><g transform="translate(726.914 119.914)"><path id="線_14644-24" data-name="線 14644" fill="none" stroke="#9be8ff" stroke-width="4" d="M263.5-118.5l-460 460"/></g><g transform="translate(749.914 119.914)"><path id="線_14644-25" data-name="線 14644" fill="none" stroke="#9be8ff" stroke-width="4" d="M263.5-118.5l-460 460"/></g><g transform="translate(772.914 119.914)"><path id="線_14644-26" data-name="線 14644" fill="none" stroke="#9be8ff" stroke-width="4" d="M263.5-118.5l-460 460"/></g><g transform="translate(795.914 119.914)"><path id="線_14644-27" data-name="線 14644" fill="none" stroke="#9be8ff" stroke-width="4" d="M263.5-118.5l-460 460"/></g><g transform="translate(818.914 119.914)"><path id="線_14644-28" data-name="線 14644" fill="none" stroke="#9be8ff" stroke-width="4" d="M263.5-118.5l-460 460"/></g><g transform="translate(841.914 119.914)"><path id="線_14644-29" data-name="線 14644" fill="none" stroke="#9be8ff" stroke-width="4" d="M263.5-118.5l-460 460"/></g><g transform="translate(864.914 119.914)"><path id="線_14644-30" data-name="線 14644" fill="none" stroke="#9be8ff" stroke-width="4" d="M263.5-118.5l-460 460"/></g><g transform="translate(887.914 119.914)"><path id="線_14644-31" data-name="線 14644" fill="none" stroke="#9be8ff" stroke-width="4" d="M263.5-118.5l-460 460"/></g><g transform="translate(910.914 119.914)"><path id="線_14644-32" data-name="線 14644" fill="none" stroke="#9be8ff" stroke-width="4" d="M263.5-118.5l-460 460"/></g><g transform="translate(933.914 119.914)"><path id="線_14644-33" data-name="線 14644" fill="none" stroke="#9be8ff" stroke-width="4" d="M263.5-118.5l-460 460"/></g><g transform="translate(956.914 119.914)"><path id="線_14644-34" data-name="線 14644" fill="none" stroke="#9be8ff" stroke-width="4" d="M263.5-118.5l-460 460"/></g><g transform="translate(979.914 119.914)"><path id="線_14644-35" data-name="線 14644" fill="none" stroke="#9be8ff" stroke-width="4" d="M263.5-118.5l-460 460"/></g><g transform="translate(1002.914 119.914)"><path id="線_14644-36" data-name="線 14644" fill="none" stroke="#9be8ff" stroke-width="4" d="M263.5-118.5l-460 460"/></g><g transform="translate(1025.914 119.914)"><path id="線_14644-37" data-name="線 14644" fill="none" stroke="#9be8ff" stroke-width="4" d="M263.5-118.5l-460 460"/></g><g transform="translate(1048.914 119.914)"><path id="線_14644-38" data-name="線 14644" fill="none" stroke="#9be8ff" stroke-width="4" d="M263.5-118.5l-460 460"/></g><g transform="translate(1071.914 119.914)"><path id="線_14644-39" data-name="線 14644" fill="none" stroke="#9be8ff" stroke-width="4" d="M263.5-118.5l-460 460"/></g><g transform="translate(197.914 579.914)"><path id="線_14644-40" data-name="線 14644" fill="none" stroke="#9be8ff" stroke-width="4" d="M263.5-118.5l-460 460"/></g><g transform="translate(220.914 579.914)"><path id="線_14644-41" data-name="線 14644" fill="none" stroke="#9be8ff" stroke-width="4" d="M263.5-118.5l-460 460"/></g><g transform="translate(243.914 579.914)"><path id="線_14644-42" data-name="線 14644" fill="none" stroke="#9be8ff" stroke-width="4" d="M263.5-118.5l-460 460"/></g><g transform="translate(266.914 579.914)"><path id="線_14644-43" data-name="線 14644" fill="none" stroke="#9be8ff" stroke-width="4" d="M263.5-118.5l-460 460"/></g><g transform="translate(289.914 579.914)"><path id="線_14644-44" data-name="線 14644" fill="none" stroke="#9be8ff" stroke-width="4" d="M263.5-118.5l-460 460"/></g><g transform="translate(312.914 579.914)"><path id="線_14644-45" data-name="線 14644" fill="none" stroke="#9be8ff" stroke-width="4" d="M263.5-118.5l-460 460"/></g><g transform="translate(335.914 579.914)"><path id="線_14644-46" data-name="線 14644" fill="none" stroke="#9be8ff" stroke-width="4" d="M263.5-118.5l-460 460"/></g><g transform="translate(358.914 579.914)"><path id="線_14644-47" data-name="線 14644" fill="none" stroke="#9be8ff" stroke-width="4" d="M263.5-118.5l-460 460"/></g><g transform="translate(381.914 579.914)"><path id="線_14644-48" data-name="線 14644" fill="none" stroke="#9be8ff" stroke-width="4" d="M263.5-118.5l-460 460"/></g><g transform="translate(404.914 579.914)"><path id="線_14644-49" data-name="線 14644" fill="none" stroke="#9be8ff" stroke-width="4" d="M263.5-118.5l-460 460"/></g><g transform="translate(427.914 579.914)"><path id="線_14644-50" data-name="線 14644" fill="none" stroke="#9be8ff" stroke-width="4" d="M263.5-118.5l-460 460"/></g><g transform="translate(450.914 579.914)"><path id="線_14644-51" data-name="線 14644" fill="none" stroke="#9be8ff" stroke-width="4" d="M263.5-118.5l-460 460"/></g><g transform="translate(473.914 579.914)"><path id="線_14644-52" data-name="線 14644" fill="none" stroke="#9be8ff" stroke-width="4" d="M263.5-118.5l-460 460"/></g><g transform="translate(496.914 579.914)"><path id="線_14644-53" data-name="線 14644" fill="none" stroke="#9be8ff" stroke-width="4" d="M263.5-118.5l-460 460"/></g><g transform="translate(519.914 579.914)"><path id="線_14644-54" data-name="線 14644" fill="none" stroke="#9be8ff" stroke-width="4" d="M263.5-118.5l-460 460"/></g><g transform="translate(542.914 579.914)"><path id="線_14644-55" data-name="線 14644" fill="none" stroke="#9be8ff" stroke-width="4" d="M263.5-118.5l-460 460"/></g><g transform="translate(565.914 579.914)"><path id="線_14644-56" data-name="線 14644" fill="none" stroke="#9be8ff" stroke-width="4" d="M263.5-118.5l-460 460"/></g><g transform="translate(588.914 579.914)"><path id="線_14644-57" data-name="線 14644" fill="none" stroke="#9be8ff" stroke-width="4" d="M263.5-118.5l-460 460"/></g><g transform="translate(611.914 579.914)"><path id="線_14644-58" data-name="線 14644" fill="none" stroke="#9be8ff" stroke-width="4" d="M263.5-118.5l-460 460"/></g><g transform="translate(634.914 579.914)"><path id="線_14644-59" data-name="線 14644" fill="none" stroke="#9be8ff" stroke-width="4" d="M263.5-118.5l-460 460"/></g><g transform="translate(657.914 579.914)"><path id="線_14644-60" data-name="線 14644" fill="none" stroke="#9be8ff" stroke-width="4" d="M263.5-118.5l-460 460"/></g><g transform="translate(680.914 579.914)"><path id="線_14644-61" data-name="線 14644" fill="none" stroke="#9be8ff" stroke-width="4" d="M263.5-118.5l-460 460"/></g><g transform="translate(703.914 579.914)"><path id="線_14644-62" data-name="線 14644" fill="none" stroke="#9be8ff" stroke-width="4" d="M263.5-118.5l-460 460"/></g><g transform="translate(726.914 579.914)"><path id="線_14644-63" data-name="線 14644" fill="none" stroke="#9be8ff" stroke-width="4" d="M263.5-118.5l-460 460"/></g><g transform="translate(749.914 579.914)"><path id="線_14644-64" data-name="線 14644" fill="none" stroke="#9be8ff" stroke-width="4" d="M263.5-118.5l-460 460"/></g><g transform="translate(772.914 579.914)"><path id="線_14644-65" data-name="線 14644" fill="none" stroke="#9be8ff" stroke-width="4" d="M263.5-118.5l-460 460"/></g><g transform="translate(795.914 579.914)"><path id="線_14644-66" data-name="線 14644" fill="none" stroke="#9be8ff" stroke-width="4" d="M263.5-118.5l-460 460"/></g><g transform="translate(818.914 579.914)"><path id="線_14644-67" data-name="線 14644" fill="none" stroke="#9be8ff" stroke-width="4" d="M263.5-118.5l-460 460"/></g><g transform="translate(841.914 579.914)"><path id="線_14644-68" data-name="線 14644" fill="none" stroke="#9be8ff" stroke-width="4" d="M263.5-118.5l-460 460"/></g><g transform="translate(864.914 579.914)"><path id="線_14644-69" data-name="線 14644" fill="none" stroke="#9be8ff" stroke-width="4" d="M263.5-118.5l-460 460"/></g><g transform="translate(887.914 579.914)"><path id="線_14644-70" data-name="線 14644" fill="none" stroke="#9be8ff" stroke-width="4" d="M263.5-118.5l-460 460"/></g><g transform="translate(910.914 579.914)"><path id="線_14644-71" data-name="線 14644" fill="none" stroke="#9be8ff" stroke-width="4" d="M263.5-118.5l-460 460"/></g><g transform="translate(933.914 579.914)"><path id="線_14644-72" data-name="線 14644" fill="none" stroke="#9be8ff" stroke-width="4" d="M263.5-118.5l-460 460"/></g><g transform="translate(956.914 579.914)"><path id="線_14644-73" data-name="線 14644" fill="none" stroke="#9be8ff" stroke-width="4" d="M263.5-118.5l-460 460"/></g><g transform="translate(979.914 579.914)"><path id="線_14644-74" data-name="線 14644" fill="none" stroke="#9be8ff" stroke-width="4" d="M263.5-118.5l-460 460"/></g><g transform="translate(1002.914 579.914)"><path id="線_14644-75" data-name="線 14644" fill="none" stroke="#9be8ff" stroke-width="4" d="M263.5-118.5l-460 460"/></g><g transform="translate(1025.914 579.914)"><path id="線_14644-76" data-name="線 14644" fill="none" stroke="#9be8ff" stroke-width="4" d="M263.5-118.5l-460 460"/></g><g transform="translate(1048.914 579.914)"><path id="線_14644-77" data-name="線 14644" fill="none" stroke="#9be8ff" stroke-width="4" d="M263.5-118.5l-460 460"/></g><g transform="translate(1071.914 579.914)"><path id="線_14644-78" data-name="線 14644" fill="none" stroke="#9be8ff" stroke-width="4" d="M263.5-118.5l-460 460"/></g></g></g></svg>