<svg id="ttl" xmlns="http://www.w3.org/2000/svg" width="345" height="101"><defs><clipPath id="clip-path"><path id="長方形_40834" data-name="長方形 40834" d="M8 0h329a8 8 0 018 8v93H0V8a8 8 0 018-8z" fill="#6bdcfd"/></clipPath><clipPath id="clip-path-2"><path fill="none" d="M0 0h842v187.531H0z"/></clipPath></defs><path id="長方形_34661" data-name="長方形 34661" d="M8 0h329a8 8 0 018 8v93H0V8a8 8 0 018-8z" fill="#0da3eb"/><g id="マスクグループ_29951" data-name="マスクグループ 29951" clip-path="url(#clip-path)"><g id="リピートグリッド_154" data-name="リピートグリッド 154" transform="translate(-470.914 -14.815)" clip-path="url(#clip-path-2)"><g transform="translate(197.914 119.914)"><path id="線_14644" data-name="線 14644" fill="none" stroke="#03a0e5" stroke-width="4" d="M263.5-118.5l-460 460"/></g><g transform="translate(220.914 119.914)"><path id="線_14644-2" data-name="線 14644" fill="none" stroke="#03a0e5" stroke-width="4" d="M263.5-118.5l-460 460"/></g><g transform="translate(243.914 119.914)"><path id="線_14644-3" data-name="線 14644" fill="none" stroke="#03a0e5" stroke-width="4" d="M263.5-118.5l-460 460"/></g><g transform="translate(266.914 119.914)"><path id="線_14644-4" data-name="線 14644" fill="none" stroke="#03a0e5" stroke-width="4" d="M263.5-118.5l-460 460"/></g><g transform="translate(289.914 119.914)"><path id="線_14644-5" data-name="線 14644" fill="none" stroke="#03a0e5" stroke-width="4" d="M263.5-118.5l-460 460"/></g><g transform="translate(312.914 119.914)"><path id="線_14644-6" data-name="線 14644" fill="none" stroke="#03a0e5" stroke-width="4" d="M263.5-118.5l-460 460"/></g><g transform="translate(335.914 119.914)"><path id="線_14644-7" data-name="線 14644" fill="none" stroke="#03a0e5" stroke-width="4" d="M263.5-118.5l-460 460"/></g><g transform="translate(358.914 119.914)"><path id="線_14644-8" data-name="線 14644" fill="none" stroke="#03a0e5" stroke-width="4" d="M263.5-118.5l-460 460"/></g><g transform="translate(381.914 119.914)"><path id="線_14644-9" data-name="線 14644" fill="none" stroke="#03a0e5" stroke-width="4" d="M263.5-118.5l-460 460"/></g><g transform="translate(404.914 119.914)"><path id="線_14644-10" data-name="線 14644" fill="none" stroke="#03a0e5" stroke-width="4" d="M263.5-118.5l-460 460"/></g><g transform="translate(427.914 119.914)"><path id="線_14644-11" data-name="線 14644" fill="none" stroke="#03a0e5" stroke-width="4" d="M263.5-118.5l-460 460"/></g><g transform="translate(450.914 119.914)"><path id="線_14644-12" data-name="線 14644" fill="none" stroke="#03a0e5" stroke-width="4" d="M263.5-118.5l-460 460"/></g><g transform="translate(473.914 119.914)"><path id="線_14644-13" data-name="線 14644" fill="none" stroke="#03a0e5" stroke-width="4" d="M263.5-118.5l-460 460"/></g><g transform="translate(496.914 119.914)"><path id="線_14644-14" data-name="線 14644" fill="none" stroke="#03a0e5" stroke-width="4" d="M263.5-118.5l-460 460"/></g><g transform="translate(519.914 119.914)"><path id="線_14644-15" data-name="線 14644" fill="none" stroke="#03a0e5" stroke-width="4" d="M263.5-118.5l-460 460"/></g><g transform="translate(542.914 119.914)"><path id="線_14644-16" data-name="線 14644" fill="none" stroke="#03a0e5" stroke-width="4" d="M263.5-118.5l-460 460"/></g><g transform="translate(565.914 119.914)"><path id="線_14644-17" data-name="線 14644" fill="none" stroke="#03a0e5" stroke-width="4" d="M263.5-118.5l-460 460"/></g><g transform="translate(588.914 119.914)"><path id="線_14644-18" data-name="線 14644" fill="none" stroke="#03a0e5" stroke-width="4" d="M263.5-118.5l-460 460"/></g><g transform="translate(611.914 119.914)"><path id="線_14644-19" data-name="線 14644" fill="none" stroke="#03a0e5" stroke-width="4" d="M263.5-118.5l-460 460"/></g><g transform="translate(634.914 119.914)"><path id="線_14644-20" data-name="線 14644" fill="none" stroke="#03a0e5" stroke-width="4" d="M263.5-118.5l-460 460"/></g><g transform="translate(657.914 119.914)"><path id="線_14644-21" data-name="線 14644" fill="none" stroke="#03a0e5" stroke-width="4" d="M263.5-118.5l-460 460"/></g><g transform="translate(680.914 119.914)"><path id="線_14644-22" data-name="線 14644" fill="none" stroke="#03a0e5" stroke-width="4" d="M263.5-118.5l-460 460"/></g><g transform="translate(703.914 119.914)"><path id="線_14644-23" data-name="線 14644" fill="none" stroke="#03a0e5" stroke-width="4" d="M263.5-118.5l-460 460"/></g><g transform="translate(726.914 119.914)"><path id="線_14644-24" data-name="線 14644" fill="none" stroke="#03a0e5" stroke-width="4" d="M263.5-118.5l-460 460"/></g><g transform="translate(749.914 119.914)"><path id="線_14644-25" data-name="線 14644" fill="none" stroke="#03a0e5" stroke-width="4" d="M263.5-118.5l-460 460"/></g><g transform="translate(772.914 119.914)"><path id="線_14644-26" data-name="線 14644" fill="none" stroke="#03a0e5" stroke-width="4" d="M263.5-118.5l-460 460"/></g><g transform="translate(795.914 119.914)"><path id="線_14644-27" data-name="線 14644" fill="none" stroke="#03a0e5" stroke-width="4" d="M263.5-118.5l-460 460"/></g><g transform="translate(818.914 119.914)"><path id="線_14644-28" data-name="線 14644" fill="none" stroke="#03a0e5" stroke-width="4" d="M263.5-118.5l-460 460"/></g><g transform="translate(841.914 119.914)"><path id="線_14644-29" data-name="線 14644" fill="none" stroke="#03a0e5" stroke-width="4" d="M263.5-118.5l-460 460"/></g><g transform="translate(864.914 119.914)"><path id="線_14644-30" data-name="線 14644" fill="none" stroke="#03a0e5" stroke-width="4" d="M263.5-118.5l-460 460"/></g><g transform="translate(887.914 119.914)"><path id="線_14644-31" data-name="線 14644" fill="none" stroke="#03a0e5" stroke-width="4" d="M263.5-118.5l-460 460"/></g><g transform="translate(910.914 119.914)"><path id="線_14644-32" data-name="線 14644" fill="none" stroke="#03a0e5" stroke-width="4" d="M263.5-118.5l-460 460"/></g><g transform="translate(933.914 119.914)"><path id="線_14644-33" data-name="線 14644" fill="none" stroke="#03a0e5" stroke-width="4" d="M263.5-118.5l-460 460"/></g><g transform="translate(956.914 119.914)"><path id="線_14644-34" data-name="線 14644" fill="none" stroke="#03a0e5" stroke-width="4" d="M263.5-118.5l-460 460"/></g><g transform="translate(979.914 119.914)"><path id="線_14644-35" data-name="線 14644" fill="none" stroke="#03a0e5" stroke-width="4" d="M263.5-118.5l-460 460"/></g><g transform="translate(1002.914 119.914)"><path id="線_14644-36" data-name="線 14644" fill="none" stroke="#03a0e5" stroke-width="4" d="M263.5-118.5l-460 460"/></g><g transform="translate(1025.914 119.914)"><path id="線_14644-37" data-name="線 14644" fill="none" stroke="#03a0e5" stroke-width="4" d="M263.5-118.5l-460 460"/></g></g></g></svg>